<!DOCTYPE svg PUBLIC "-//W3C//DTD SVG 1.1//EN" "http://www.w3.org/Graphics/SVG/1.1/DTD/svg11.dtd">
<!-- Uploaded to: SVG Repo, www.svgrepo.com, Transformed by: SVG Repo Mixer Tools -->
<svg fill="#4f9509" height="64px" width="64px" version="1.1" id="Layer_1" xmlns="http://www.w3.org/2000/svg" xmlns:xlink="http://www.w3.org/1999/xlink" viewBox="0 0 512.001 512.001" xml:space="preserve" stroke="#4f9509">
<g id="SVGRepo_bgCarrier" stroke-width="0"/>
<g id="SVGRepo_tracerCarrier" stroke-linecap="round" stroke-linejoin="round"/>
<g id="SVGRepo_iconCarrier"> <g> <g> <g> <path d="M272.318,130.076c-5.178-3.819-12.473-2.722-16.293,2.455c-5.655,7.661-6.246,8.462-6.922,10.848 c-1.752,6.191,1.847,12.632,8.038,14.384c1.06,0.301,2.129,0.444,3.178,0.444c4.141,0,8.009-2.224,10.085-5.824 c0.344-0.5,1.384-1.971,4.368-6.013C278.593,141.193,277.495,133.898,272.318,130.076z"/> <path d="M296.841,97.531c2.113,1.617,4.602,2.4,7.073,2.4c1.858,0,3.706-0.444,5.372-1.307c3.886,2.012,8.746,1.741,12.447-1.093 c5.11-3.91,6.083-11.224,2.172-16.334c-5.004-6.539-5.542-7.14-5.934-7.578c-2.21-2.471-5.368-3.883-8.684-3.883 s-6.473,1.412-8.684,3.883c-0.372,0.415-0.934,1.044-5.935,7.577C290.76,86.307,291.732,93.62,296.841,97.531z"/> <path d="M348.173,152.381c2.076,3.601,5.944,5.826,10.085,5.826c1.05,0,2.118-0.143,3.18-0.444 c6.19-1.752,9.789-8.192,8.037-14.384c-0.676-2.386-1.266-3.187-6.921-10.848c-3.82-5.179-11.119-6.275-16.293-2.455 c-5.177,3.822-6.276,11.116-2.455,16.293C346.787,150.409,347.829,151.881,348.173,152.381z"/> <path d="M465.082,352.316c-10.901-6.808-24.305-7.505-35.852-1.867l-25.399,12.403c-8.254-31.048-30.511-56.441-59.588-68.948 v-58.428c19.634-5.801,37.245-16.365,50.133-30.617c16.415-18.151,24.173-40.931,21.849-64.154 c-2.52-27.981-32.162-62.213-55.981-89.727c-0.04-0.044-0.078-0.09-0.12-0.134c-14.866-16.645-27.589-30.767-35.19-39.204 c-3.346-3.714-6.027-6.689-6.662-7.409C316.092,1.592,312.816,0,309.288,0c-3.524,0-6.8,1.59-8.979,4.228 c-0.629,0.713-3.277,3.654-6.583,7.32c-7.612,8.449-20.353,22.59-35.274,39.297c-0.04,0.044-0.079,0.09-0.119,0.135 c-23.818,27.511-53.456,61.744-55.98,89.722c-2.326,23.223,5.432,46.003,21.846,64.156c12.891,14.254,30.501,24.82,50.137,30.62 v51.831c-33.344,6.303-61.118,28.548-75.053,58.497c-6.928-1.201-13.787-2.822-20.533-4.909l-52.419-16.225v-21.615 c0-6.434-5.216-11.651-11.651-11.651H41.16c-6.435,0-11.651,5.217-11.651,11.651v194.827c0,6.434,5.216,11.651,11.651,11.651 h73.52c6.435,0,11.651-5.217,11.651-11.651v-20.874l9.235,7.428c22.101,17.776,49.891,27.564,78.252,27.564h70.82 c25.22,0,49.559-7.515,70.389-21.732l111.313-75.977c10.115-6.903,16.152-18.333,16.152-30.577 C482.492,370.863,475.984,359.125,465.082,352.316z M103.029,486.231H52.811V314.706h50.217V486.231z M274.335,186.706v24.251 c-12.857-4.808-24.252-12.219-32.853-21.729c-8.456-9.351-18.086-24.967-15.939-46.251c0.005-0.048,0.009-0.096,0.013-0.143 c1.812-20.469,29.837-52.859,50.335-76.534c13.772-15.42,25.684-28.651,33.397-37.211c7.698,8.545,19.627,21.795,33.396,37.211 c20.498,23.674,48.524,56.063,50.336,76.534c0.005,0.048,0.008,0.096,0.014,0.143c2.147,21.287-7.485,36.902-15.942,46.254 c-8.601,9.511-19.993,16.92-32.85,21.728v-24.252c0-19.273-15.68-34.953-34.953-34.953S274.335,167.433,274.335,186.706z M320.94,186.706v100.303c-5.751-0.989-11.655-1.527-17.684-1.527h-5.618v-98.776c0-6.424,5.227-11.651,11.651-11.651 S320.94,180.282,320.94,186.706z M293.701,308.784h9.555c38.98,0,71.589,27.756,79.127,64.54l-36.737,17.939v-5.354 c0-20.765-16.894-37.659-37.66-37.659h-80.6c-1.004,0-2.005-0.038-3.008-0.056C238.497,324.614,264.274,308.784,293.701,308.784z M453.205,395.045L341.89,471.022c-16.942,11.565-36.738,17.677-57.252,17.677h-70.82c-23.068,0-45.672-7.962-63.649-22.42 l-23.838-19.172v-98.043l45.529,14.092c18.003,5.572,36.685,8.397,55.527,8.397h80.6c7.917,0,14.358,6.44,14.358,14.356V401.2 c-15.082,4.015-49.716,11.346-85.141,5.645c-6.35-1.021-12.331,3.3-13.354,9.652c-1.022,6.353,3.3,12.332,9.652,13.354 c10.625,1.71,21.12,2.396,31.126,2.396c39.336,0,71.069-10.598,73.098-11.29c0.001,0,0.003-0.001,0.005-0.001 c0.012-0.004,0.035-0.012,0.044-0.015c0.431-0.148,0.844-0.324,1.245-0.515c0.029-0.014,0.061-0.022,0.089-0.036l100.347-49.001 c4.342-2.12,9.183-1.869,13.283,0.692c4.1,2.56,6.451,6.802,6.451,11.635C459.19,388.251,456.953,392.488,453.205,395.045z"/> </g> </g> </g> </g>
</svg>